<svg width="132" height="30" viewBox="0 0 132 30" fill="none" xmlns="http://www.w3.org/2000/svg">
<path d="M116 26.5C116 26.5 117.882 14.5 132 14.5" stroke="black" stroke-opacity="0.88" stroke-miterlimit="10"/>
<path d="M116 2.5C116 2.5 117.882 14.5 132 14.5" stroke="black" stroke-opacity="0.88" stroke-miterlimit="10"/>
<path d="M132 14.4299L12 14.4299" stroke="black" stroke-opacity="0.88" stroke-miterlimit="10"/>
<path d="M4 14.4301C4 13.3255 3.10457 12.4301 2 12.4301C0.89543 12.4301 0 13.3255 0 14.4301C0 15.5346 0.89543 16.4301 2 16.4301C3.10457 16.4301 4 15.5346 4 14.4301Z" fill="#00D970"/>
<path d="M45.7717 29C50.064 29 53.5435 22.732 53.5435 15C53.5435 7.26801 50.064 1 45.7717 1C41.4795 1 38 7.26801 38 15C38 22.732 41.4795 29 45.7717 29Z" stroke="#00CB6F" stroke-miterlimit="10"/>
<path d="M55.6631 29C59.9553 29 63.4348 22.732 63.4348 15C63.4348 7.26801 59.9553 1 55.6631 1C51.3709 1 47.8914 7.26801 47.8914 15C47.8914 22.732 51.3709 29 55.6631 29Z" stroke="#00CB6F" stroke-miterlimit="10"/>
<path d="M65.5543 29C69.8465 29 73.3261 22.732 73.3261 15C73.3261 7.26801 69.8465 1 65.5543 1C61.2621 1 57.7826 7.26801 57.7826 15C57.7826 22.732 61.2621 29 65.5543 29Z" stroke="#00CB6F" stroke-miterlimit="10"/>
<path d="M75.4457 29C79.7379 29 83.2174 22.732 83.2174 15C83.2174 7.26801 79.7379 1 75.4457 1C71.1535 1 67.674 7.26801 67.674 15C67.674 22.732 71.1535 29 75.4457 29Z" stroke="#00CB6F" stroke-miterlimit="10"/>
<path d="M85.3369 29C89.6291 29 93.1087 22.732 93.1087 15C93.1087 7.26801 89.6291 1 85.3369 1C81.0447 1 77.5652 7.26801 77.5652 15C77.5652 22.732 81.0447 29 85.3369 29Z" stroke="#00CB6F" stroke-miterlimit="10"/>
</svg>
