<?xml version="1.0" encoding="UTF-8"?><svg id="_層_1" xmlns="http://www.w3.org/2000/svg" viewBox="0 0 100 100"><defs><style>.cls-1{fill:#00cb6f;}.cls-2{fill:#fff;}.cls-3{fill:none;stroke:#00cb6f;stroke-miterlimit:10;}.cls-4{opacity:.8;}</style></defs><g class="cls-4"><path d="M17.58,11.84c.29,.34,.58,.67,.87,.97,.29,.31,.52,.54,.68,.7,.16,.16,.31,.3,.46,.43,.15,.13,.27,.24,.38,.34l-.24,.24c-.65-.45-1.2-.76-1.65-.93-.45-.17-.86-.21-1.22-.13-.36,.09-.72,.32-1.09,.68l-.33,.33,5.93,5.85c.28,.28,.52,.46,.71,.55s.39,.07,.59-.05c.2-.11,.46-.32,.77-.62l.21,.21c-.22,.19-.49,.46-.83,.78s-.67,.67-1.01,1.01c-.36,.36-.69,.7-1,1.02-.31,.32-.55,.58-.73,.79l-.21-.2c.29-.3,.49-.56,.6-.76,.11-.2,.13-.4,.04-.59-.08-.19-.27-.43-.55-.71l-5.93-5.85-.34,.34c-.36,.36-.58,.72-.66,1.09s-.04,.77,.14,1.22c.18,.45,.5,.99,.97,1.63l-.24,.24c-.09-.12-.2-.24-.34-.39-.14-.14-.28-.29-.44-.45s-.4-.38-.71-.67c-.31-.29-.64-.57-.99-.86,.31-.3,.65-.63,1.02-.99,.37-.36,.74-.72,1.1-1.09,.36-.37,.69-.7,1-1.01,.29-.3,.62-.63,.99-1s.72-.74,1.08-1.11c.36-.37,.68-.72,.98-1.03Z"/><path d="M25.14,18.81l-.15-.25c.26-.18,.45-.34,.56-.47,.11-.13,.14-.29,.09-.47s-.16-.42-.34-.72l-3.75-6.2c-.19-.31-.35-.52-.48-.64-.13-.12-.29-.16-.46-.13-.17,.03-.4,.12-.68,.28l-.15-.25c.21-.11,.48-.26,.81-.45,.33-.19,.69-.4,1.07-.63,.33-.2,.66-.4,.98-.61,.32-.2,.58-.37,.79-.51l.15,.25c-.26,.17-.45,.32-.55,.46s-.14,.29-.1,.47c.04,.18,.15,.42,.34,.73l3.75,6.2c.18,.3,.34,.51,.48,.63,.14,.12,.29,.17,.46,.13s.4-.13,.67-.27l.15,.25c-.22,.11-.49,.26-.82,.45-.33,.19-.66,.39-.99,.59-.38,.23-.73,.44-1.05,.64s-.59,.37-.78,.51Zm-.62-5.53l-.15-.25,4.94-2.98,.15,.25-4.94,2.98Zm5.9,2.34l-.15-.25c.27-.18,.45-.34,.56-.47,.11-.13,.14-.29,.09-.47s-.16-.42-.34-.72l-3.75-6.2c-.19-.31-.35-.52-.48-.64-.13-.12-.29-.16-.46-.13-.17,.03-.4,.12-.68,.28l-.15-.25c.23-.13,.51-.29,.85-.48,.34-.19,.67-.39,1.01-.59,.37-.22,.71-.43,1.03-.64,.32-.2,.57-.36,.75-.49l.15,.25c-.26,.17-.45,.32-.55,.46-.1,.14-.14,.29-.1,.47,.04,.18,.15,.42,.34,.73l3.75,6.2c.18,.3,.34,.51,.48,.63,.14,.12,.29,.17,.46,.13,.17-.04,.4-.13,.67-.27l.15,.25c-.2,.1-.47,.24-.79,.43-.32,.19-.67,.4-1.04,.62-.33,.2-.67,.4-1,.61s-.6,.38-.82,.54Z"/><path d="M31.6,3.42c.24-.06,.54-.14,.91-.24,.37-.1,.73-.2,1.1-.31,.46-.14,.89-.27,1.3-.4,.41-.13,.7-.22,.86-.27,.84-.25,1.56-.35,2.17-.31,.61,.04,1.1,.2,1.48,.48,.38,.28,.64,.67,.79,1.17,.09,.31,.12,.64,.1,1s-.15,.72-.37,1.08c-.22,.36-.56,.7-1.03,1.03-.47,.33-1.1,.61-1.91,.85l-1.35,.4-.08-.28,1.21-.36c.59-.17,1.01-.41,1.26-.71,.25-.3,.38-.64,.38-1.03s-.06-.79-.18-1.22c-.22-.74-.53-1.27-.94-1.59-.41-.32-.97-.38-1.68-.17-.38,.11-.61,.27-.68,.46-.07,.19-.03,.53,.11,1.02l2.06,6.95c.1,.34,.2,.58,.31,.73s.24,.23,.41,.24c.17,.01,.41-.02,.71-.09l.08,.28c-.24,.05-.54,.13-.91,.23-.37,.1-.74,.21-1.11,.32-.42,.12-.81,.24-1.18,.36-.36,.11-.66,.21-.89,.3l-.08-.28c.3-.11,.52-.22,.66-.32,.14-.1,.21-.24,.21-.43,0-.18-.05-.44-.15-.78l-2.06-6.95c-.1-.35-.2-.59-.3-.74-.1-.15-.24-.23-.41-.25-.17-.01-.41,.02-.72,.1l-.08-.28Zm3.98,4.23c.44-.11,.82-.2,1.12-.26,.3-.06,.56-.12,.78-.16s.41-.08,.59-.1c.8-.15,1.42-.14,1.88,.03,.45,.18,.83,.54,1.12,1.08l.75,1.35c.2,.36,.37,.6,.52,.74,.15,.13,.31,.17,.5,.11,.13-.04,.23-.11,.3-.2,.07-.1,.14-.22,.2-.37l.25,.11c-.15,.36-.33,.64-.55,.86-.22,.21-.53,.38-.93,.5-.45,.13-.86,.14-1.23,.02-.37-.12-.7-.46-.98-1.01l-.68-1.32c-.19-.37-.38-.69-.57-.96-.19-.27-.39-.46-.61-.58s-.49-.13-.82-.03l-1.51,.45-.1-.23Z"/><path d="M50.53,0c-.01,.4-.02,.79,0,1.16,0,.38,.02,.66,.03,.85,.01,.18,.03,.36,.05,.53,.02,.17,.04,.31,.06,.43l-.34,.02c-.12-.67-.28-1.18-.48-1.56s-.45-.63-.76-.77c-.31-.14-.7-.2-1.17-.17l-.8,.05c-.3,.02-.53,.06-.67,.11-.15,.06-.24,.17-.29,.32s-.06,.4-.04,.72l.46,7.46c.02,.32,.06,.56,.12,.71s.17,.25,.33,.29,.38,.05,.68,.03l.83-.05c.5-.03,.91-.15,1.23-.35s.58-.53,.75-.96c.18-.43,.29-1.02,.35-1.77l.34-.02c-.01,.3,0,.69,.03,1.17,.01,.2,.04,.5,.08,.89s.09,.79,.15,1.21c-.5,.01-1.06,.03-1.68,.07s-1.18,.06-1.66,.09c-.23,.01-.53,.03-.9,.06-.36,.02-.76,.05-1.17,.08-.42,.03-.84,.06-1.28,.09-.43,.03-.84,.06-1.23,.1l-.02-.29c.32-.04,.56-.09,.71-.16s.26-.19,.3-.37,.05-.44,.03-.79l-.44-7.23c-.02-.36-.06-.62-.13-.79-.06-.17-.18-.28-.34-.33s-.41-.08-.73-.07l-.02-.29c.39-.01,.8-.03,1.23-.05,.43-.02,.86-.04,1.29-.06,.42-.02,.81-.04,1.17-.06,.36-.02,.66-.04,.89-.05,.45-.03,.96-.06,1.52-.1,.57-.04,1.08-.08,1.52-.13Zm-2.04,5.13l.02,.29-2.6,.16-.02-.29,2.6-.16Zm.31-1.95c0,.56,0,.98,.03,1.27s.04,.56,.06,.8c.01,.24,.04,.51,.06,.8,.03,.29,.08,.71,.15,1.26l-.34,.02c-.07-.33-.16-.64-.28-.93-.12-.29-.3-.52-.52-.69s-.55-.24-.96-.21l-.02-.29c.3-.02,.54-.1,.73-.23,.18-.14,.33-.31,.43-.52s.18-.42,.23-.64c.05-.22,.08-.43,.1-.63l.34-.02Z"/><path d="M61.28,1.27c-.1,.39-.19,.77-.26,1.14s-.12,.65-.15,.84c-.03,.18-.05,.36-.07,.53-.02,.17-.03,.31-.04,.43l-.33-.05c.03-.68-.02-1.22-.13-1.62-.11-.41-.31-.71-.57-.92-.27-.2-.64-.34-1.11-.42l-.79-.12c-.3-.05-.53-.06-.68-.03-.16,.02-.27,.11-.35,.26-.08,.15-.14,.38-.19,.69l-1.15,7.39c-.05,.32-.06,.56-.03,.72s.11,.28,.26,.35c.14,.07,.36,.13,.66,.18l.82,.13c.49,.08,.92,.05,1.28-.08,.36-.13,.67-.39,.94-.78,.27-.39,.51-.94,.72-1.65l.33,.05c-.08,.29-.15,.68-.22,1.15-.03,.2-.07,.5-.12,.88s-.08,.79-.11,1.21c-.49-.1-1.04-.19-1.66-.29-.62-.1-1.16-.19-1.65-.26-.23-.04-.53-.08-.89-.14-.36-.06-.75-.11-1.16-.17-.42-.06-.84-.12-1.27-.18-.43-.06-.84-.12-1.22-.17l.05-.29c.32,.03,.57,.03,.73,0,.17-.03,.29-.13,.37-.3,.08-.17,.15-.42,.2-.77l1.11-7.16c.06-.36,.07-.62,.04-.8-.03-.18-.11-.31-.26-.4-.15-.09-.38-.16-.7-.22l.05-.29c.38,.07,.79,.14,1.22,.21s.85,.14,1.27,.21c.42,.07,.81,.13,1.16,.19,.36,.06,.65,.1,.88,.14,.44,.07,.95,.14,1.51,.23,.56,.08,1.07,.15,1.51,.2Zm-3.09,4.57l-.04,.29-2.57-.4,.04-.29,2.57,.4Zm.72-1.84c-.12,.54-.21,.96-.25,1.25-.04,.29-.08,.55-.12,.79-.04,.24-.07,.51-.11,.8-.04,.29-.08,.71-.12,1.27l-.33-.05c0-.33-.02-.66-.08-.97-.06-.31-.18-.57-.37-.78-.19-.21-.49-.35-.89-.41l.04-.29c.3,.05,.55,.02,.76-.07,.21-.1,.38-.23,.53-.41,.15-.18,.27-.37,.36-.58,.1-.21,.17-.4,.23-.59l.33,.05Z"/><path d="M73.29,12.05l-1.71,2.96c-.18,.3-.28,.55-.32,.73-.04,.18,0,.34,.11,.47s.29,.28,.55,.46l-.15,.25c-.2-.14-.47-.31-.8-.51s-.67-.4-1.01-.59c-.36-.21-.71-.41-1.05-.6s-.61-.33-.82-.43l.15-.25c.29,.14,.52,.23,.68,.26,.17,.03,.32-.02,.45-.14,.13-.13,.29-.34,.47-.64l1.5-2.59,.51,1.34,1.44-.7Zm5.5-3.02l-.15,.25c-.2-.05-.45-.02-.75,.08-.31,.1-.69,.3-1.16,.6l-5.25,3.43-.47-.27,.21-7.17c.01-.39-.02-.66-.08-.82s-.15-.26-.24-.32l.15-.27c.2,.13,.4,.26,.62,.4s.45,.29,.72,.44c.34,.2,.7,.4,1.09,.62,.39,.22,.76,.41,1.11,.59l-.15,.27c-.21-.12-.41-.22-.6-.28-.19-.06-.34-.06-.47,.02-.12,.08-.19,.25-.22,.52l-.22,5.1-.51,.18,3.1-2.02c.6-.4,1-.74,1.19-1.05,.19-.3,.23-.58,.12-.82-.11-.24-.34-.46-.68-.67l.15-.25c.27,.17,.53,.33,.78,.48,.24,.15,.49,.3,.73,.44,.2,.12,.38,.22,.55,.3,.16,.08,.31,.16,.44,.22Z"/><path d="M86.28,15.56c-.3,.27-.58,.54-.84,.8-.26,.27-.46,.47-.59,.62-.12,.14-.24,.27-.35,.4-.11,.13-.2,.25-.27,.34l-.25-.23c.4-.55,.66-1.02,.79-1.43,.13-.4,.14-.76,.03-1.08-.11-.32-.34-.64-.7-.96l-.59-.54c-.22-.2-.41-.34-.55-.4s-.29-.06-.43,.02-.33,.24-.54,.47l-5.04,5.52c-.22,.24-.36,.43-.42,.58s-.06,.3,.02,.43c.08,.14,.23,.31,.45,.51l.62,.56c.37,.33,.74,.55,1.11,.64,.37,.09,.78,.05,1.22-.13,.44-.18,.94-.5,1.51-.98l.25,.23c-.23,.2-.5,.48-.82,.83-.14,.15-.33,.38-.58,.67s-.5,.61-.76,.95c-.35-.35-.76-.74-1.22-1.16-.46-.42-.87-.8-1.23-1.13-.17-.16-.39-.36-.66-.61-.27-.25-.56-.51-.87-.79-.31-.28-.63-.56-.96-.85-.32-.29-.63-.56-.93-.82l.2-.22c.25,.2,.45,.34,.61,.4,.16,.07,.32,.05,.47-.04,.16-.09,.35-.27,.59-.53l4.89-5.35c.24-.27,.4-.48,.48-.64,.08-.16,.07-.32,0-.48s-.23-.34-.46-.57l.2-.22c.28,.27,.58,.55,.9,.85,.32,.3,.63,.59,.94,.88,.31,.29,.6,.55,.86,.8,.27,.24,.49,.44,.66,.6,.33,.3,.71,.64,1.13,1.02,.42,.38,.81,.71,1.15,1Zm-5.11,2.11l-.2,.22-1.92-1.75,.2-.22,1.92,1.75Zm1.61-1.14c-.4,.38-.7,.69-.9,.9s-.37,.42-.54,.6-.34,.38-.53,.6c-.19,.22-.46,.55-.8,.99l-.25-.23c.19-.28,.34-.56,.47-.85,.12-.29,.17-.57,.13-.85-.04-.28-.21-.56-.51-.83l.2-.22c.22,.2,.45,.32,.67,.36s.45,.02,.67-.05c.22-.07,.43-.16,.62-.28,.19-.12,.37-.24,.52-.36l.25,.23Z"/><path d="M91.16,21.72l-5.48,8.15c-.2,.32-.31,.59-.32,.8-.01,.21,.02,.39,.1,.51l-.24,.17c-.13-.22-.29-.48-.49-.77-.2-.29-.41-.59-.62-.9-.25-.35-.48-.68-.69-.98-.22-.3-.4-.54-.55-.72l.24-.17c.3,.4,.55,.61,.75,.63,.2,.02,.45-.18,.75-.63l4.22-6.08,.41,.03-6.31,1.56c-.51,.13-.9,.26-1.18,.41-.28,.15-.46,.31-.56,.48-.09,.17-.11,.36-.05,.57,.06,.21,.17,.44,.33,.69l-.24,.17c-.16-.27-.33-.52-.49-.76-.16-.24-.33-.48-.5-.72-.12-.18-.24-.34-.35-.49-.11-.15-.22-.28-.32-.39l.24-.17c.16,.15,.39,.25,.68,.3,.29,.05,.69,.02,1.22-.11l9.01-2.21c.06,.1,.13,.21,.21,.32,.08,.11,.15,.21,.23,.3Zm-4.34,4.58l-.24,.17-2.5-3.57,.32-.05,2.41,3.45Z"/><path d="M94.59,27.17c.08,.23,.19,.52,.32,.88,.13,.36,.27,.71,.41,1.06,.18,.44,.35,.86,.52,1.25s.29,.67,.35,.83c.33,.81,.5,1.52,.52,2.13,.02,.61-.09,1.11-.34,1.52-.25,.4-.61,.7-1.09,.9-.3,.12-.63,.19-.99,.19-.36,0-.73-.08-1.11-.26-.38-.18-.75-.49-1.12-.92-.37-.43-.71-1.04-1.03-1.81l-.53-1.3,.27-.11,.47,1.16c.23,.57,.51,.96,.83,1.18,.33,.22,.68,.31,1.06,.28,.38-.03,.78-.13,1.19-.3,.71-.29,1.21-.65,1.49-1.09,.28-.44,.28-1,0-1.69-.15-.37-.32-.58-.52-.63-.2-.05-.53,.02-1,.21l-6.72,2.72c-.33,.13-.56,.26-.7,.38-.14,.12-.21,.27-.2,.44,0,.17,.06,.4,.16,.7l-.27,.11c-.07-.23-.18-.53-.32-.88-.14-.35-.28-.71-.43-1.07-.16-.41-.32-.78-.47-1.13s-.28-.63-.39-.85l.27-.11c.14,.29,.27,.5,.38,.63,.11,.13,.26,.18,.45,.17,.18-.02,.44-.09,.76-.22l6.72-2.72c.33-.14,.57-.26,.71-.37,.14-.11,.21-.26,.2-.43,0-.17-.06-.41-.17-.71l.27-.11Zm-3.83,4.37c.15,.43,.28,.79,.37,1.09,.09,.29,.17,.55,.24,.76,.06,.21,.12,.4,.15,.58,.23,.78,.28,1.4,.15,1.87-.13,.47-.45,.87-.97,1.22l-1.27,.88c-.34,.23-.57,.43-.69,.58-.12,.16-.14,.33-.06,.5,.05,.13,.13,.22,.23,.28,.1,.06,.23,.12,.39,.16l-.09,.26c-.37-.11-.67-.27-.91-.47-.23-.2-.43-.49-.59-.88-.18-.43-.22-.84-.14-1.22,.08-.38,.39-.74,.91-1.08l1.25-.81c.35-.23,.65-.44,.9-.66,.25-.21,.42-.43,.52-.66s.08-.5-.05-.82l-.59-1.46,.22-.12Z"/><path d="M99.88,50.63c-.05,1.87-.52,3.24-1.42,4.12-.9,.88-2.16,1.29-3.78,1.25-1.06-.03-1.98-.27-2.77-.74-.78-.46-1.38-1.12-1.8-1.97s-.61-1.87-.58-3.07c0-.15,.01-.34,.03-.59s.03-.51,.04-.77c.01-.27,.02-.51,.03-.74,.01-.4,.02-.79,.02-1.17,0-.38,0-.69-.01-.94h.29c.01,.33,.04,.57,.1,.73,.05,.16,.17,.27,.34,.33,.17,.06,.44,.09,.79,.1l7.25,.19c.36,0,.63-.01,.8-.06,.17-.05,.29-.15,.36-.31,.07-.16,.11-.4,.13-.72h.29c-.02,.25-.04,.56-.06,.94-.02,.38-.04,.76-.04,1.14,0,.35,0,.74,0,1.18s0,.8-.01,1.08Zm-.26-.14c.01-.45-.06-.74-.23-.88s-.5-.22-1-.23l-7.31-.19c-.51-.01-.84,.05-1.01,.18s-.26,.43-.27,.88c-.02,.9,.15,1.62,.52,2.14,.37,.52,.92,.9,1.66,1.13,.73,.23,1.63,.36,2.69,.39,1.09,.03,2-.06,2.72-.27,.72-.21,1.27-.57,1.64-1.07,.37-.51,.57-1.19,.59-2.06Z"/><path d="M97.23,66.44c-.38-.14-.74-.27-1.1-.38-.36-.11-.63-.19-.82-.24-.18-.05-.35-.09-.52-.13-.17-.04-.31-.06-.42-.08l.09-.32c.67,.1,1.21,.12,1.63,.05,.42-.07,.74-.23,.98-.47s.41-.6,.54-1.06l.21-.78c.08-.29,.11-.52,.11-.67,0-.16-.08-.28-.22-.38-.14-.09-.36-.18-.67-.26l-7.23-1.95c-.31-.08-.55-.12-.71-.11-.16,.01-.29,.08-.38,.22-.09,.13-.17,.35-.25,.64l-.22,.8c-.13,.48-.15,.91-.06,1.28,.09,.37,.31,.71,.67,1.02s.88,.6,1.57,.89l-.09,.32c-.28-.11-.66-.22-1.12-.35-.2-.05-.49-.12-.87-.21s-.78-.17-1.19-.24c.15-.47,.31-1.01,.47-1.61,.17-.6,.31-1.14,.44-1.61,.06-.23,.14-.51,.23-.87,.09-.35,.19-.73,.3-1.14,.1-.41,.21-.82,.32-1.24,.11-.42,.21-.82,.3-1.2l.28,.08c-.06,.32-.09,.56-.08,.73,.01,.17,.1,.3,.25,.4,.16,.1,.4,.19,.74,.28l7,1.89c.35,.09,.61,.14,.79,.13,.18,0,.32-.08,.42-.22,.1-.14,.2-.36,.29-.67l.28,.08c-.11,.37-.23,.77-.34,1.19-.12,.42-.23,.83-.35,1.24-.12,.41-.22,.79-.31,1.13-.09,.35-.17,.63-.23,.86-.12,.43-.25,.92-.39,1.48-.14,.55-.26,1.05-.36,1.48Zm-2.46-2.66c-.53-.18-.93-.31-1.21-.38s-.54-.14-.78-.2c-.23-.06-.5-.13-.78-.2s-.7-.15-1.25-.26l.09-.32c.33,.04,.66,.05,.97,.03,.31-.02,.59-.11,.82-.28,.23-.16,.4-.44,.51-.84l.28,.08c-.08,.29-.08,.55,0,.76,.07,.22,.19,.41,.35,.57,.16,.17,.34,.31,.54,.42s.38,.22,.56,.3l-.09,.32Zm-1.75-.91l-.28-.08,.68-2.51,.28,.08-.68,2.51Z"/><path d="M94.67,72.56c-.25,.49-.49,.83-.73,1.04-.24,.21-.47,.37-.68,.5-.11,.07-.2,.13-.27,.18-.06,.05-.11,.1-.14,.17-.04,.09-.03,.17,.05,.26,.08,.09,.2,.19,.38,.32l-.15,.3c-.16-.09-.35-.2-.56-.32s-.49-.28-.85-.47c-.36-.19-.83-.43-1.42-.73l.15-.3c.46,.2,.93,.32,1.43,.36,.49,.04,.95-.03,1.37-.2,.42-.17,.76-.5,1-.97,.22-.42,.27-.84,.16-1.25-.11-.41-.37-.72-.8-.94-.36-.19-.72-.25-1.06-.2-.34,.06-.71,.19-1.11,.41-.4,.22-.87,.48-1.4,.79-.5,.28-.97,.52-1.41,.72s-.88,.31-1.31,.34-.88-.08-1.36-.33c-.56-.29-.96-.67-1.19-1.13-.23-.47-.32-.98-.26-1.54,.06-.56,.23-1.12,.51-1.67,.26-.51,.52-.89,.78-1.14s.5-.45,.72-.61c.22-.13,.35-.25,.41-.35,.04-.09,.03-.17-.05-.26-.08-.09-.2-.19-.38-.32l.15-.3c.19,.12,.42,.25,.69,.39,.27,.14,.61,.32,1.04,.55,.43,.22,.97,.5,1.63,.84l-.15,.3c-.57-.25-1.14-.42-1.71-.5s-1.08-.04-1.54,.15c-.47,.18-.84,.55-1.12,1.11-.16,.3-.24,.61-.26,.91-.02,.3,.05,.59,.21,.85,.15,.26,.41,.49,.77,.67,.36,.18,.71,.26,1.06,.23,.35-.03,.72-.13,1.11-.3,.38-.18,.8-.4,1.25-.67,.47-.27,.93-.52,1.38-.74,.45-.22,.9-.35,1.35-.38,.45-.04,.92,.07,1.41,.32,.54,.27,.91,.63,1.12,1.06s.29,.9,.24,1.41c-.05,.5-.2,1-.44,1.47Z"/><path d="M88.94,81.18l-.24-.17c.18-.26,.29-.47,.33-.64,.04-.17,.02-.32-.09-.47-.1-.15-.3-.33-.59-.54l-5.84-4.29c-.28-.21-.51-.34-.68-.4-.17-.06-.33-.04-.48,.06s-.32,.27-.52,.51l-.24-.17c.16-.18,.35-.43,.58-.73,.23-.3,.46-.61,.69-.92,.26-.35,.5-.69,.73-1,.22-.31,.4-.57,.52-.77l.24,.17c-.18,.27-.29,.49-.33,.65s-.02,.32,.09,.47c.11,.15,.3,.32,.59,.53l5.84,4.29c.29,.21,.52,.35,.69,.41,.17,.06,.33,.04,.47-.05,.15-.09,.32-.26,.52-.52l.23,.17c-.15,.18-.34,.43-.57,.73-.24,.3-.48,.63-.74,.98-.23,.31-.46,.63-.67,.94-.22,.31-.39,.57-.53,.77Z"/><path d="M83.83,86.87c-.48,.44-.93,.74-1.36,.88-.43,.14-.85,.23-1.28,.28-.15,0-.26,.04-.31,.09-.14,.13-.02,.43,.34,.9l-.25,.23c-.24-.28-.54-.62-.9-1.02-.36-.4-.84-.92-1.44-1.56l.25-.23c.41,.34,.8,.62,1.18,.84,.38,.22,.79,.32,1.23,.31,.37,.03,.75-.04,1.13-.19,.38-.15,.72-.36,1-.63,.38-.35,.62-.76,.71-1.21,.1-.46,.08-.94-.04-1.46-.13-.51-.35-1.04-.67-1.57s-.72-1.05-1.19-1.55c-1.2-1.28-2.26-2.04-3.19-2.29-.93-.25-1.76-.03-2.48,.65-.2,.19-.35,.37-.44,.56-.1,.19-.16,.36-.2,.5-.04,.18-.04,.34,0,.46s.13,.24,.25,.37l.98,1.05c.29,.31,.54,.52,.74,.62,.2,.1,.4,.11,.61,.02,.21-.09,.46-.27,.77-.54l.2,.21c-.15,.13-.32,.28-.52,.46-.2,.18-.41,.37-.63,.57-.22,.2-.42,.38-.6,.55-.28,.26-.53,.5-.75,.72s-.4,.4-.55,.55l-.2-.21c.14-.14,.22-.27,.26-.38,.04-.11,0-.24-.09-.39-.1-.15-.27-.35-.52-.62l-1.97-2.11,.21-.2c.12,.11,.27,.22,.45,.32s.32,.1,.42,0c.05-.05,.09-.11,.14-.2s.1-.24,.18-.47c.1-.4,.24-.78,.42-1.14,.18-.37,.44-.7,.78-1.02,.8-.74,1.61-1.22,2.45-1.44,.83-.21,1.66-.17,2.48,.14s1.6,.86,2.35,1.66c.76,.82,1.27,1.68,1.51,2.58,.24,.9,.24,1.78,0,2.63s-.73,1.61-1.45,2.29Z"/><path d="M69.76,95.97l-.14-.26c.26-.18,.43-.35,.53-.53,.09-.18,.1-.38,.04-.62-.07-.24-.21-.54-.42-.93l-4.01-7.31c.08-.03,.17-.07,.26-.12,.09-.05,.18-.11,.28-.17l9.59,4.45-3.04-5.53c-.22-.41-.42-.71-.6-.91-.18-.2-.38-.3-.61-.3-.23,0-.53,.08-.91,.24l-.14-.26c.17-.07,.39-.18,.65-.31s.5-.27,.73-.39c.21-.11,.41-.23,.62-.35,.21-.12,.37-.22,.5-.32l.14,.26c-.26,.19-.44,.37-.53,.54s-.1,.38-.03,.62c.07,.24,.21,.55,.41,.92l3.25,5.92c.17,.32,.32,.54,.45,.66,.13,.12,.28,.17,.45,.15,.17-.02,.4-.11,.69-.25l.14,.26c-.14,.07-.32,.15-.53,.26s-.42,.22-.63,.33c-.2,.11-.39,.22-.57,.33-.18,.11-.35,.21-.49,.3l-8.31-3.76,2.47,4.49c.23,.42,.43,.72,.6,.92s.37,.29,.6,.3,.53-.07,.91-.25l.14,.26c-.17,.08-.38,.19-.65,.32s-.51,.26-.73,.38c-.21,.12-.42,.24-.63,.36-.2,.12-.37,.22-.49,.3Z"/><path d="M51.47,99.9c0-.4-.01-.79-.04-1.16-.02-.37-.04-.66-.06-.85-.02-.18-.04-.36-.07-.53s-.05-.31-.07-.43l.33-.03c.14,.66,.32,1.17,.54,1.54,.21,.36,.48,.61,.79,.74,.31,.13,.71,.17,1.18,.12l.8-.08c.3-.03,.52-.08,.67-.14s.24-.18,.27-.34c.04-.16,.04-.4,0-.72l-.75-7.44c-.03-.32-.08-.55-.15-.7s-.18-.24-.34-.27c-.16-.03-.38-.04-.68,0l-.83,.08c-.49,.05-.9,.18-1.22,.4-.32,.22-.55,.55-.72,.99s-.25,1.04-.28,1.78l-.33,.03c0-.3-.03-.69-.07-1.17-.02-.2-.06-.5-.11-.88-.05-.39-.12-.79-.2-1.2,.5-.03,1.05-.07,1.68-.13,.62-.06,1.17-.11,1.66-.16,.23-.02,.53-.05,.89-.09,.36-.04,.75-.08,1.17-.13,.42-.05,.84-.09,1.27-.14,.43-.05,.84-.1,1.23-.15l.03,.29c-.32,.05-.55,.11-.71,.19-.15,.07-.25,.2-.28,.38-.04,.18-.04,.44,0,.79l.73,7.21c.04,.36,.09,.62,.16,.78,.07,.16,.19,.27,.36,.32,.17,.05,.41,.06,.73,.04l.03,.29c-.39,.03-.8,.06-1.23,.1-.43,.04-.86,.08-1.28,.11s-.81,.07-1.17,.11c-.36,.04-.65,.07-.89,.09-.45,.04-.95,.1-1.52,.16-.57,.06-1.07,.13-1.52,.19Zm1.61-3.24c-.02-.56-.04-.98-.08-1.27-.03-.29-.06-.56-.09-.8-.02-.24-.06-.51-.09-.8-.04-.29-.11-.71-.2-1.26l.33-.03c.08,.32,.19,.63,.32,.91,.13,.28,.32,.51,.55,.66,.24,.16,.56,.22,.97,.17l.03,.29c-.3,.03-.54,.12-.72,.26s-.31,.32-.41,.53c-.1,.21-.16,.43-.21,.65-.04,.22-.07,.43-.08,.63l-.33,.03Zm.23-1.96l-.03-.29,2.59-.26,.03,.29-2.59,.26Z"/><path d="M39.44,98.87l.04-.29c.32-.04,.64-.17,.98-.39,.33-.22,.66-.5,.97-.84l2.75-2.96,.06,.37-1.82,1.97c-.42,.45-.68,.83-.79,1.13-.11,.31-.08,.55,.09,.72,.16,.18,.44,.3,.84,.37l-.04,.29c-.18-.03-.38-.06-.59-.09-.21-.03-.42-.06-.62-.09s-.39-.05-.55-.07c-.27-.03-.52-.06-.74-.08-.22-.02-.41-.03-.57-.04Zm5.22,.64l.04-.3c.45,.06,.75,.05,.87-.03,.13-.07,.14-.22,.03-.45l-4.62-9.04c-.15-.3-.28-.51-.39-.61-.11-.11-.26-.18-.47-.23l.04-.3c.17,.03,.42,.07,.74,.13,.32,.05,.65,.1,.99,.14,.43,.05,.85,.1,1.28,.14,.43,.04,.75,.06,.96,.08l-.04,.3c-.44-.05-.74-.06-.88-.01-.14,.05-.16,.18-.05,.4l4.63,9.13c.16,.3,.29,.51,.39,.62,.1,.11,.25,.18,.47,.22l-.04,.3c-.17-.03-.43-.07-.76-.13-.34-.06-.68-.11-1.03-.15-.42-.05-.82-.09-1.21-.13s-.71-.06-.96-.08Zm.28-5.1c-.02-.13-.05-.26-.08-.39l1.85-2.02c.43-.47,.69-.87,.77-1.2,.08-.33,.02-.6-.19-.8s-.52-.33-.93-.4l.04-.29c.13,.03,.3,.05,.5,.08l.61,.09c.21,.03,.41,.06,.6,.08,.19,.02,.35,.04,.46,.06,.27,.03,.52,.06,.74,.08,.22,.02,.41,.03,.57,.03l-.04,.29c-.34,.05-.69,.19-1.04,.42s-.72,.55-1.11,.97l-2.76,3Z"/><path d="M36.74,98.17c-.23-.09-.52-.21-.87-.35s-.71-.27-1.07-.4c-.45-.16-.88-.31-1.28-.45-.41-.14-.69-.24-.86-.3-1.23-.45-2.05-1.03-2.47-1.75-.42-.72-.48-1.48-.19-2.28,.12-.33,.3-.65,.56-.97s.58-.58,.98-.78c.4-.2,.9-.3,1.47-.31,.58,0,1.26,.13,2.05,.42l1.37,.5-.1,.27-1.24-.45c-.58-.21-1.06-.25-1.46-.11-.4,.14-.72,.39-.97,.75s-.46,.78-.63,1.25c-.32,.87-.41,1.57-.28,2.1,.13,.53,.54,.93,1.24,1.18,.38,.14,.65,.15,.82,.03s.34-.41,.52-.88l2.46-6.75c.13-.35,.18-.62,.18-.82-.01-.2-.11-.37-.3-.5-.19-.13-.48-.27-.87-.43l.11-.29c.26,.11,.6,.25,1.02,.41,.42,.16,.85,.32,1.3,.48,.38,.14,.76,.27,1.12,.4s.67,.23,.95,.31l-.1,.27c-.31-.09-.55-.14-.72-.14s-.31,.07-.42,.22c-.11,.15-.23,.38-.35,.71l-2.48,6.81c-.12,.34-.19,.6-.2,.78s.05,.32,.18,.44c.13,.11,.34,.23,.64,.35l-.1,.27Z"/><path d="M20.28,90.14c.25-.32,.48-.63,.69-.94,.21-.31,.37-.55,.48-.71,.1-.16,.19-.31,.27-.46,.08-.15,.15-.28,.21-.38l.28,.18c-.29,.61-.47,1.12-.53,1.54-.06,.42,0,.78,.16,1.07,.17,.29,.45,.57,.85,.83l.68,.43c.25,.16,.46,.26,.61,.3,.15,.04,.3,0,.42-.1,.13-.1,.28-.29,.45-.56l4.01-6.31c.17-.27,.28-.49,.32-.65s0-.3-.09-.42c-.1-.12-.28-.26-.53-.43l-.7-.45c-.42-.27-.82-.41-1.2-.43-.38-.02-.77,.09-1.17,.34-.4,.25-.84,.66-1.32,1.23l-.28-.18c.19-.24,.41-.56,.66-.96,.11-.17,.26-.43,.46-.76,.2-.34,.39-.69,.58-1.07,.41,.28,.88,.59,1.4,.93,.52,.34,.99,.64,1.4,.9,.2,.13,.45,.29,.76,.48,.31,.2,.64,.4,1,.62,.36,.22,.72,.44,1.09,.67,.37,.23,.72,.44,1.05,.64l-.16,.25c-.28-.16-.51-.25-.67-.29-.17-.04-.32,0-.46,.12-.14,.12-.3,.33-.49,.62l-3.88,6.12c-.19,.3-.31,.54-.36,.72-.05,.17-.02,.33,.08,.47,.1,.14,.29,.3,.55,.48l-.16,.25c-.32-.22-.67-.44-1.03-.68-.36-.24-.72-.47-1.08-.7-.35-.23-.69-.44-.99-.64-.3-.19-.56-.35-.75-.48-.38-.24-.81-.51-1.29-.81s-.92-.56-1.31-.79Zm3.27-1.56c.33-.45,.57-.8,.72-1.05,.15-.25,.29-.48,.42-.68s.27-.43,.42-.69c.15-.25,.35-.62,.62-1.11l.28,.18c-.14,.31-.24,.61-.31,.92-.07,.31-.06,.59,.02,.86,.09,.27,.31,.51,.65,.73l-.16,.25c-.25-.16-.5-.24-.73-.23s-.45,.06-.65,.17c-.21,.11-.39,.23-.57,.39-.17,.15-.32,.3-.45,.45l-.28-.18Zm1.39-1.4l.16-.25,2.2,1.39-.16,.25-2.2-1.39Z"/><path d="M17.66,88.15c-.16-.18-.38-.41-.64-.69-.26-.28-.52-.55-.79-.82-.34-.34-.66-.66-.97-.95-.31-.3-.52-.51-.65-.63-.62-.62-1.05-1.21-1.3-1.76-.25-.55-.34-1.06-.27-1.53s.29-.88,.66-1.25c.23-.23,.51-.41,.84-.56,.33-.15,.7-.21,1.12-.19,.42,.02,.88,.16,1.39,.42s1.06,.68,1.65,1.28l.99,1-.21,.21-.88-.89c-.43-.44-.84-.69-1.23-.77-.39-.08-.75-.03-1.09,.15-.34,.18-.67,.42-.99,.74-.55,.54-.86,1.07-.95,1.58-.09,.51,.13,1.03,.65,1.56,.28,.28,.52,.41,.73,.38,.2-.03,.49-.22,.85-.58l5.15-5.09c.25-.25,.42-.45,.5-.62,.08-.16,.09-.32,.02-.48-.07-.15-.21-.35-.42-.59l.21-.21c.16,.19,.37,.42,.63,.69,.26,.27,.53,.55,.81,.83,.31,.31,.6,.6,.87,.87,.27,.27,.5,.48,.68,.64l-.21,.2c-.24-.21-.44-.36-.59-.43-.16-.07-.31-.07-.48,.02-.16,.08-.37,.25-.62,.5l-5.15,5.09c-.26,.25-.43,.46-.51,.62-.08,.16-.09,.32-.02,.47s.21,.36,.43,.59l-.21,.21Zm1.85-5.5c-.31-.34-.56-.63-.76-.86-.2-.24-.37-.44-.51-.61-.14-.17-.26-.33-.36-.47-.51-.63-.8-1.18-.86-1.67s.08-.98,.42-1.49l.83-1.3c.22-.34,.36-.61,.41-.8,.05-.19,0-.35-.14-.49-.1-.1-.2-.15-.32-.17-.12-.02-.26-.02-.42,0l-.02-.27c.39-.04,.73-.01,1.02,.08,.29,.09,.59,.29,.88,.59,.33,.33,.53,.69,.6,1.07s-.07,.83-.43,1.35l-.84,1.22c-.24,.34-.43,.66-.58,.95-.15,.29-.23,.56-.23,.81,0,.25,.12,.49,.36,.74l1.11,1.12-.16,.2Z"/><path d="M7.62,76.33l.24-.17c.18,.25,.35,.43,.49,.52,.14,.1,.3,.12,.48,.07,.17-.05,.41-.17,.71-.38l5.98-4.09c.29-.2,.49-.37,.61-.51,.11-.14,.15-.3,.1-.47-.04-.17-.15-.39-.31-.66l.24-.16c.12,.21,.29,.48,.5,.79,.21,.32,.43,.64,.65,.96,.25,.36,.48,.7,.7,1.01,.22,.31,.41,.56,.55,.74l-.24,.16c-.2-.25-.37-.43-.5-.53-.14-.1-.3-.12-.47-.07-.18,.06-.41,.18-.7,.38l-5.98,4.09c-.3,.2-.5,.38-.61,.52-.11,.14-.15,.29-.11,.46,.04,.17,.14,.39,.32,.66l-.24,.17c-.12-.2-.29-.46-.5-.78s-.44-.67-.69-1.03c-.22-.32-.44-.64-.66-.94-.22-.31-.41-.56-.55-.75Z"/><path d="M3.11,67.35c.38-.13,.74-.27,1.09-.41,.35-.14,.61-.25,.79-.33,.17-.08,.33-.15,.48-.23,.15-.08,.28-.15,.38-.21l.14,.31c-.58,.35-1.01,.68-1.28,1-.28,.32-.43,.65-.45,.98-.02,.34,.06,.72,.26,1.16l.33,.73c.13,.27,.24,.47,.35,.59,.11,.12,.24,.17,.41,.15,.16-.02,.39-.09,.69-.22l6.81-3.1c.29-.13,.5-.26,.62-.37,.12-.11,.17-.25,.15-.41-.02-.16-.09-.37-.22-.65l-.35-.76c-.21-.45-.46-.79-.77-1.02-.31-.23-.7-.35-1.17-.36s-1.06,.09-1.78,.31l-.14-.31c.29-.1,.65-.25,1.08-.45,.19-.08,.45-.21,.8-.39s.71-.37,1.07-.58c.19,.46,.41,.97,.66,1.54,.25,.57,.48,1.08,.69,1.52,.1,.21,.22,.48,.37,.82,.15,.33,.32,.69,.5,1.07,.18,.38,.36,.76,.54,1.16,.18,.39,.36,.76,.53,1.11l-.27,.12c-.15-.28-.29-.49-.41-.61-.12-.12-.27-.17-.45-.15s-.43,.11-.75,.25l-6.6,3.01c-.33,.15-.56,.28-.69,.4-.13,.12-.19,.27-.19,.44s.08,.41,.2,.7l-.27,.12c-.15-.36-.32-.74-.49-1.13-.18-.4-.35-.79-.52-1.18-.17-.39-.33-.74-.48-1.07-.15-.33-.27-.6-.37-.81-.19-.41-.4-.87-.64-1.39-.24-.52-.46-.97-.67-1.37Zm3.59,.48c.52-.19,.91-.35,1.18-.48s.51-.24,.73-.34c.22-.1,.46-.22,.73-.35,.26-.13,.64-.33,1.13-.59l.14,.31c-.28,.18-.54,.38-.76,.6-.23,.22-.38,.46-.45,.74-.07,.27-.02,.6,.15,.97l-.27,.12c-.13-.27-.28-.47-.48-.59-.19-.12-.41-.19-.64-.22s-.46-.02-.68,.01c-.23,.03-.43,.08-.62,.13l-.14-.31Zm1.93-.41l.27-.12,1.08,2.37-.27,.12-1.08-2.37Z"/><path d="M.14,54.88l.29-.06c.09,.3,.2,.52,.35,.66,.14,.14,.34,.21,.58,.22,.25,0,.58-.03,1.01-.12l8.19-1.6c0,.09,.02,.18,.04,.28,.02,.1,.05,.21,.08,.32l-7.16,7.78,6.2-1.21c.46-.09,.81-.19,1.05-.29,.24-.11,.4-.27,.47-.49,.07-.22,.09-.53,.05-.94l.29-.06c.02,.19,.05,.42,.1,.71s.1,.56,.15,.82c.04,.23,.09,.46,.14,.69,.05,.23,.1,.42,.15,.57l-.29,.06c-.1-.31-.22-.53-.35-.67s-.33-.21-.58-.21c-.25,0-.58,.03-1.01,.11l-6.63,1.3c-.35,.07-.61,.15-.77,.23-.16,.08-.25,.21-.28,.38s-.02,.41,.03,.73l-.29,.06c-.02-.15-.05-.35-.08-.59s-.08-.47-.12-.7c-.04-.22-.09-.43-.14-.64-.05-.21-.1-.39-.14-.55l6.1-6.77-5.03,.98c-.47,.09-.82,.19-1.06,.3-.24,.11-.39,.27-.47,.48-.08,.21-.09,.53-.04,.94l-.29,.06c-.03-.18-.06-.42-.11-.71-.05-.29-.1-.56-.14-.81-.05-.24-.1-.47-.15-.71-.06-.23-.1-.42-.14-.56Z"/><path d="M0,46.96c.03-.64,.15-1.16,.36-1.57,.21-.4,.45-.76,.72-1.07,.16-.19,.18-.34,.07-.44-.11-.11-.37-.19-.79-.25l.02-.34c.37,.04,.82,.07,1.36,.11s1.24,.07,2.12,.12l-.02,.34c-.44,.04-.81,.08-1.11,.14-.3,.05-.56,.14-.78,.25s-.43,.27-.64,.47c-.3,.25-.54,.55-.69,.91-.16,.36-.25,.74-.27,1.14-.02,.51,.09,.95,.34,1.34,.25,.39,.6,.72,1.05,.99s.98,.48,1.59,.63c.61,.15,1.26,.24,1.95,.28,.71,.03,1.37,0,1.99-.1,.62-.1,1.15-.27,1.62-.51,.47-.24,.83-.54,1.11-.91,.27-.37,.42-.81,.44-1.32,.02-.36-.03-.73-.15-1.12-.12-.39-.31-.71-.58-.96-.28-.34-.61-.57-1.01-.71-.4-.14-.93-.25-1.6-.36l.02-.34c.91,.04,1.65,.08,2.21,.09,.56,.02,1.03,.03,1.41,.02l-.02,.34c-.42,.02-.69,.07-.8,.16-.11,.09-.1,.24,.02,.46,.24,.37,.44,.76,.61,1.18,.17,.41,.24,.94,.21,1.57-.05,.99-.3,1.85-.75,2.58-.45,.73-1.09,1.28-1.9,1.66-.81,.38-1.77,.54-2.88,.48-1.09-.05-2.03-.31-2.83-.78s-1.41-1.09-1.83-1.86c-.42-.77-.61-1.64-.56-2.61Z"/><path d="M3.04,32.75c.37,.15,.74,.28,1.1,.4,.36,.12,.63,.2,.82,.26,.18,.05,.35,.1,.52,.13,.17,.04,.31,.07,.42,.09l-.09,.32c-.67-.11-1.21-.13-1.63-.07-.42,.06-.75,.21-.98,.46-.24,.24-.42,.59-.55,1.05l-.22,.77c-.08,.29-.12,.51-.12,.67,0,.16,.08,.29,.21,.38,.13,.09,.36,.19,.67,.27l7.19,2.06c.31,.09,.55,.13,.71,.12,.16,0,.29-.08,.38-.21,.09-.13,.17-.34,.26-.63l.23-.8c.14-.48,.16-.9,.08-1.28-.09-.37-.3-.72-.65-1.03-.35-.31-.87-.62-1.55-.92l.09-.32c.28,.11,.65,.23,1.11,.36,.2,.06,.48,.13,.86,.22s.77,.18,1.19,.26c-.16,.47-.32,1.01-.5,1.6s-.33,1.13-.47,1.6c-.06,.22-.15,.51-.25,.86-.1,.35-.21,.73-.32,1.13-.11,.4-.22,.81-.34,1.23-.11,.42-.22,.82-.32,1.19l-.28-.08c.07-.31,.1-.56,.09-.73s-.09-.31-.25-.41c-.15-.1-.4-.2-.74-.29l-6.97-1.99c-.35-.1-.61-.15-.79-.14-.18,0-.32,.08-.43,.21s-.21,.36-.3,.67l-.28-.08c.12-.37,.24-.76,.36-1.18,.12-.41,.25-.83,.37-1.23s.23-.78,.33-1.13,.18-.63,.25-.86c.12-.43,.26-.92,.41-1.47,.15-.55,.28-1.04,.39-1.48Zm2.42,2.7c.52,.19,.93,.32,1.21,.4,.28,.08,.54,.15,.77,.21,.23,.07,.49,.14,.78,.21,.28,.07,.7,.16,1.24,.28l-.09,.32c-.33-.04-.65-.06-.97-.04-.31,.02-.59,.11-.82,.27s-.41,.44-.52,.83l-.28-.08c.08-.29,.09-.54,.02-.76-.07-.22-.18-.41-.34-.58-.16-.17-.34-.31-.53-.43s-.38-.22-.56-.3l.09-.32Zm1.74,.94l.28,.08-.72,2.5-.28-.08,.72-2.5Z"/></g><path class="cls-3" d="M19.33,46.16c-1.05,8.48,1.4,17.36,7.52,24.26,11.31,12.78,30.84,13.97,43.63,2.68s13.99-30.81,2.68-43.58c-11.31-12.78-30.84-13.97-43.63-2.68"/><path class="cls-3" d="M23.32,50.01s-4.29-.88-4.05-5.96"/><path class="cls-3" d="M14.68,49.61s4.35-.47,4.59-5.55"/><circle class="cls-1" cx="23.1" cy="35.69" r="1.33"/><path class="cls-2" d="M50.73,34.19l3,7.6c.15,.38,.57,.58,.96,.46l7.82-2.39c.68-.21,1.27,.53,.91,1.14l-4.08,7.08c-.2,.36-.1,.81,.24,1.04l6.75,4.62c.59,.4,.38,1.32-.33,1.43l-8.08,1.23c-.41,.06-.7,.43-.67,.84l.59,8.15c.05,.71-.8,1.12-1.32,.64l-6.01-5.55c-.3-.28-.77-.28-1.07,0l-6.01,5.55c-.52,.48-1.37,.08-1.32-.64l.59-8.15c.03-.41-.26-.77-.67-.84l-8.08-1.23c-.71-.11-.92-1.02-.33-1.43l6.75-4.62c.34-.23,.44-.69,.24-1.04l-4.08-7.08c-.36-.62,.23-1.35,.91-1.14l7.82,2.39c.39,.12,.81-.08,.96-.46l3-7.6c.26-.66,1.2-.66,1.47,0Z"/></svg>