<svg width="24" height="139" viewBox="0 0 24 139" fill="none" xmlns="http://www.w3.org/2000/svg">
<path d="M7.87984 6.62402C8.70117 6.62402 9.42651 6.80002 10.0558 7.15202C10.6852 7.50402 11.1758 7.99469 11.5278 8.62402C11.8905 9.25336 12.0718 9.99469 12.0718 10.848C12.0718 11.7014 11.8852 12.4694 11.5118 13.152C11.1492 13.8347 10.6425 14.3734 9.99184 14.768C9.34117 15.152 8.57851 15.344 7.70384 15.344C6.90384 15.344 6.18384 15.1734 5.54384 14.832C4.91451 14.48 4.41851 13.984 4.05584 13.344C3.69317 12.704 3.51184 11.9574 3.51184 11.104C3.51184 10.2614 3.69317 9.50402 4.05584 8.83202C4.41851 8.16002 4.92517 7.62669 5.57584 7.23202C6.23717 6.82669 7.00517 6.62402 7.87984 6.62402ZM7.73584 6.91202C7.12784 6.91202 6.62651 7.28002 6.23184 8.01602C5.83717 8.74136 5.63984 9.75469 5.63984 11.056C5.63984 12.016 5.74117 12.7894 5.94384 13.376C6.14651 13.9627 6.41851 14.3894 6.75984 14.656C7.10117 14.9227 7.46384 15.056 7.84784 15.056C8.46651 15.056 8.96784 14.688 9.35184 13.952C9.74651 13.216 9.94384 12.1974 9.94384 10.896C9.94384 9.93602 9.84251 9.16802 9.63984 8.59202C9.43717 8.00536 9.17051 7.57869 8.83984 7.31202C8.50917 7.04536 8.14117 6.91202 7.73584 6.91202Z" fill="#00D970"/>
<path d="M18.6322 6.62402L18.6962 7.04002L13.8802 13.44L14.0082 12.992H19.0482C19.4855 12.992 19.7629 12.9387 19.8802 12.832C19.9976 12.7147 20.0775 12.5174 20.1202 12.24H20.4242C20.4242 12.848 20.4295 13.3174 20.4402 13.648C20.4509 13.968 20.4669 14.2614 20.4882 14.528C20.4135 14.5067 20.2802 14.496 20.0882 14.496C19.8962 14.4854 19.6722 14.4747 19.4162 14.464C19.1602 14.4534 18.8935 14.448 18.6162 14.448C18.3495 14.448 18.0935 14.448 17.8482 14.448H12.9202V14.112L18.6322 6.62402ZM18.8882 6.62402V17.376H17.2242V8.70402L18.6322 6.62402H18.8882Z" fill="#00D970"/>
<path d="M12 32V106.5" stroke="white"/>
<path d="M8.88094 122.14C9.70227 122.14 10.4276 122.316 11.0569 122.668C11.6863 123.02 12.1769 123.511 12.5289 124.14C12.8916 124.769 13.0729 125.511 13.0729 126.364C13.0729 127.217 12.8863 127.985 12.5129 128.668C12.1503 129.351 11.6436 129.889 10.9929 130.284C10.3423 130.668 9.57961 130.86 8.70494 130.86C7.90494 130.86 7.18494 130.689 6.54494 130.348C5.91561 129.996 5.41961 129.5 5.05694 128.86C4.69427 128.22 4.51294 127.473 4.51294 126.62C4.51294 125.777 4.69427 125.02 5.05694 124.348C5.41961 123.676 5.92627 123.143 6.57694 122.748C7.23827 122.343 8.00627 122.14 8.88094 122.14ZM8.73694 122.428C8.12894 122.428 7.62761 122.796 7.23294 123.532C6.83827 124.257 6.64094 125.271 6.64094 126.572C6.64094 127.532 6.74227 128.305 6.94494 128.892C7.14761 129.479 7.41961 129.905 7.76094 130.172C8.10227 130.439 8.46494 130.572 8.84894 130.572C9.46761 130.572 9.96894 130.204 10.3529 129.468C10.7476 128.732 10.9449 127.713 10.9449 126.412C10.9449 125.452 10.8436 124.684 10.6409 124.108C10.4383 123.521 10.1716 123.095 9.84094 122.828C9.51027 122.561 9.14227 122.428 8.73694 122.428Z" fill="white"/>
<path d="M18.2071 122.188V129.052C18.2071 129.543 18.3031 129.873 18.4951 130.044C18.6871 130.215 19.0177 130.3 19.4871 130.3V130.636C19.2737 130.625 18.9591 130.615 18.5431 130.604C18.1377 130.583 17.7164 130.572 17.2791 130.572C16.7457 130.572 16.2337 130.583 15.7431 130.604C15.2631 130.615 14.8897 130.625 14.6231 130.636V130.3C15.1137 130.3 15.4977 130.215 15.7751 130.044C16.0524 129.863 16.1911 129.511 16.1911 128.988V125.084C16.1911 124.572 16.1431 124.193 16.0471 123.948C15.9511 123.703 15.7804 123.543 15.5351 123.468C15.2897 123.393 14.9537 123.356 14.5271 123.356V123.004C15.3911 122.983 16.1057 122.913 16.6711 122.796C17.2471 122.679 17.7591 122.476 18.2071 122.188Z" fill="white"/>
</svg>
