<svg width="140" height="21" viewBox="0 0 140 21" fill="none" xmlns="http://www.w3.org/2000/svg">
<path d="M130 20.5C135.523 20.5 140 16.0228 140 10.5C140 4.97715 135.523 0.5 130 0.5C124.477 0.5 120 4.97715 120 10.5C120 16.0228 124.477 20.5 130 20.5Z" fill="black" fill-opacity="0.72"/>
<path d="M118 20.5C123.523 20.5 128 16.0228 128 10.5C128 4.97715 123.523 0.5 118 0.5C112.477 0.5 108 4.97715 108 10.5C108 16.0228 112.477 20.5 118 20.5Z" fill="white"/>
<path d="M92 12.5H12" stroke="black" stroke-opacity="0.88" stroke-miterlimit="10"/>
<path d="M2 14.5C3.10457 14.5 4 13.6046 4 12.5C4 11.3954 3.10457 10.5 2 10.5C0.89543 10.5 0 11.3954 0 12.5C0 13.6046 0.89543 14.5 2 14.5Z" fill="#00D970"/>
</svg>
