<?xml version="1.0" encoding="utf-8"?>
<!-- Generator: Adobe Illustrator 26.3.1, SVG Export Plug-In . SVG Version: 6.00 Build 0)  -->
<svg version="1.1" id="圖層_1" xmlns="http://www.w3.org/2000/svg" xmlns:xlink="http://www.w3.org/1999/xlink" x="0px" y="0px"
	 viewBox="0 0 2500 308" style="enable-background:new 0 0 2500 308;" xml:space="preserve">
<style type="text/css">
	.st0{fill:#FFFFFF;}
	.st1{fill:#38BDF8;}
</style>
<path class="st0" d="M775.7,129.8h-45v86.7c0,23.1,15.3,22.7,45,21.3v35c-60.2,7.2-84.2-9.4-84.2-56.3v-86.7h-33.4V92.2h33.4V43.7
	l39.2-11.5v60.1h45V129.8z M947.2,92.2h39.2v180.6h-39.2v-26c-13.8,19.2-35.2,30.7-63.5,30.7c-49.3,0-90.3-41.6-90.3-95
	c0-53.8,41-95,90.3-95c28.3,0,49.7,11.5,63.5,30.3V92.2z M889.9,240.3c32.7,0,57.3-24.2,57.3-57.8s-24.7-57.8-57.3-57.8
	s-57.3,24.2-57.3,57.8S857.2,240.3,889.9,240.3z M1051.7,65.1c-13.8,0-25.1-11.6-25.1-24.9c0-3.3,0.7-6.5,1.9-9.5
	c2.5-6.1,7.4-11,13.5-13.5c3-1.2,6.3-1.9,9.6-1.9c3.3,0,6.5,0.7,9.6,1.9c3,1.2,5.8,3.1,8.1,5.4c2.3,2.3,4.1,5.1,5.4,8.1
	c1.2,3,1.9,6.3,1.9,9.5C1076.8,53.5,1065.5,65.1,1051.7,65.1z M1032.1,272.8V92.2h39.2v180.6H1032.1z M1116.7,272.8V9.1h39.2v263.7
	L1116.7,272.8L1116.7,272.8z M1410.2,92.2h41.4l-57,180.6h-38.5l-37.7-121.7l-38.1,121.7h-38.5l-57-180.6h41.4l35.2,124.6
	l38.1-124.6h37.4l37.7,124.6L1410.2,92.2z M1500.2,65.1c-13.8,0-25-11.6-25-24.9c0-3.3,0.7-6.5,1.9-9.5c1.3-3,3.1-5.7,5.4-8.1
	c2.3-2.3,5.1-4.1,8.1-5.4c3.1-1.2,6.3-1.9,9.6-1.9c6.6,0,13,2.6,17.7,7.3c2.3,2.3,4.2,5.1,5.4,8.1c1.3,3,1.9,6.3,1.9,9.5
	C1525.2,53.5,1514,65.1,1500.2,65.1z M1480.6,272.8V92.2h39.2v180.6H1480.6z M1730.3,161.9v110.9h-39.2V165.9
	c0-27.5-16-41.9-40.7-41.9c-25.8,0-46.1,15.2-46.1,52v96.8h-39.2V92.2h39.2v23.1c12-18.8,31.6-27.8,56.3-27.8
	C1701.2,87.5,1730.3,115,1730.3,161.9L1730.3,161.9z M1916,19.9h39.2v252.9H1916v-26c-13.8,19.2-35.2,30.7-63.5,30.7
	c-49.4,0-90.4-41.6-90.4-95c0-53.8,41-95,90.4-95c28.3,0,49.7,11.5,63.5,30.3V19.9z M1858.7,240.3c32.6,0,57.3-24.2,57.3-57.8
	s-24.7-57.8-57.3-57.8c-32.7,0-57.3,24.2-57.3,57.8S1826,240.3,1858.7,240.3z M1990.8,182.5c0-53.8,41-95,95.8-95
	c35.6,0,66.4,18.4,80.9,46.6l-33.7,19.5c-8-17-25.8-27.8-47.5-27.8c-31.9,0-56.2,24.2-56.2,56.7s24.3,56.7,56.2,56.7
	c21.8,0,39.6-11.2,48.3-27.8l33.8,19.1c-15.3,28.5-46.1,47-81.6,47C2031.8,277.5,1990.8,236,1990.8,182.5z M2330.4,221.9
	c0,36.1-31.6,55.7-70.8,55.7c-36.3,0-62.4-16.3-74-42.3l33.7-19.5c5.8,16.3,20.3,26,40.3,26c17.4,0,30.9-5.8,30.9-20.2
	c0-32.2-97.6-14.1-97.6-78.8c0-33.9,29.4-55.3,66.4-55.3c29.7,0,54.4,13.7,67.1,37.6l-33,18.4c-6.5-14.1-19.2-20.6-34.1-20.6
	c-14.2,0-26.5,6.1-26.5,19.1C2232.8,174.9,2330.4,155.1,2330.4,221.9L2330.4,221.9z M2497.7,221.9c0,36.1-31.6,55.7-70.8,55.7
	c-36.3,0-62.4-16.3-74-42.3l33.8-19.5c5.8,16.3,20.3,26,40.3,26c17.4,0,30.8-5.8,30.8-20.2c0-32.2-97.6-14.1-97.6-78.8
	c0-33.9,29.4-55.3,66.4-55.3c29.8,0,54.4,13.7,67.1,37.6l-33,18.4c-6.5-14.1-19.2-20.6-34.1-20.6c-14.1,0-26.5,6.1-26.5,19.1
	C2400,174.9,2497.7,155.1,2497.7,221.9L2497.7,221.9z"/>
<path class="st1" d="M260.1,0c-68.7,0-111.7,34.2-128.9,102.7c25.8-34.2,55.9-47.1,90.3-38.5c19.6,4.9,33.6,19.1,49.1,34.8
	c25.3,25.5,54.5,55.1,118.4,55.1c68.7,0,111.7-34.2,128.9-102.7c-25.8,34.2-55.8,47-90.2,38.5c-19.6-4.9-33.6-19.1-49.1-34.7
	C353.3,29.5,324,0,260.1,0z M131.2,154C62.5,154,19.5,188.2,2.3,256.7c25.8-34.2,55.8-47,90.2-38.5c19.6,4.9,33.6,19.1,49.1,34.7
	C167,278.5,196.2,308,260.1,308c68.8,0,111.7-34.2,128.9-102.7c-25.8,34.2-55.9,47.1-90.2,38.5c-19.6-4.9-33.6-19.1-49.2-34.8
	C224.4,183.6,195.1,154,131.2,154L131.2,154z"/>
</svg>
